<?xml version="1.0" encoding="utf-8"?>

<svg xmlns="http://www.w3.org/2000/svg" xmlns:xlink="http://www.w3.org/1999/xlink" width="930" height="930" viewBox="0 0 930 930">
  <defs>
    <style>.cls-1{fill:none;}.cls-2{isolation:isolate;}.cls-3{clip-path:url(#clip-path);}.cls-4{fill:#3cb9ff;}.cls-5{fill:#23afff;}.cls-6{fill:#1e96ff;}.cls-7{fill:#1982ff;}.cls-8{fill:#0f7dff;}.cls-9{opacity:0.4;mix-blend-mode:overlay;fill:url(#linear-gradient);}.cls-10{fill:#fff;}</style>
    <clipPath id="clip-path">
      <rect class="cls-1" width="930" height="930" rx="200" ry="200"/>
    </clipPath>
    <linearGradient id="linear-gradient" x1="465" x2="465" y2="930" gradientUnits="userSpaceOnUse">
      <stop offset="0" stop-color="#fff"/>
      <stop offset="1"/>
    </linearGradient>
  </defs>
  <title>アセット 2</title>
  <g class="cls-2">
    <g id="レイヤー_2" data-name="レイヤー 2">
      <g id="DLsite_Play_fix_android" data-name="DLsite Play_fix_android">
        <g class="cls-3">
          <rect class="cls-4" width="310" height="310"/>
          <rect class="cls-5" x="310" width="310" height="310"/>
          <rect class="cls-5" y="310" width="310" height="310"/>
          <rect class="cls-6" x="310" y="310" width="310" height="310"/>
          <rect class="cls-6" y="620" width="310" height="310"/>
          <rect class="cls-7" x="310" y="620" width="310" height="310"/>
          <rect class="cls-6" x="620" width="310" height="310"/>
          <rect class="cls-7" x="620" y="310" width="310" height="310"/>
          <rect class="cls-8" x="620" y="620" width="310" height="310"/>
          <rect class="cls-9" width="930" height="930"/>
          <path class="cls-10" d="M620.38,0V478q0,60.11-47.65,100.46T464.12,618.83q-63.55,0-109-45.93T309.57,463.42q0-64.39,44.22-108.18T462.4,311.45q80.69,0,123.64,55.81l-.86-145.1q-57.53-28.33-113.33-28.33-115.91,0-196.62,75.56-83.29,77.27-83.28,193.18,0,110.76,79,191.47t188.89,80.71q111.6,0,194.47-76.41t82.85-187.17V0Z"/>
        </g>
      </g>
    </g>
  </g>
</svg>
