<?xml version="1.0" encoding="utf-8"?>

<svg xmlns="http://www.w3.org/2000/svg" width="100" height="98.35" viewBox="0 0 100 98.35">
  <title>別窓で開く</title>
  <g id="レイヤー_2" data-name="レイヤー 2">
    <g id="レイヤー_1-2" data-name="レイヤー 1">
      <polygon points="70.51 84.51 70.51 90.35 8 90.35 8 27.84 15.49 27.84 15.49 19.84 0 19.84 0 98.35 78.51 98.35 78.51 84.51 70.51 84.51"/>
      <path d="M49.15,27.33a4.17,4.17,0,1,1,0-8.33H76.83A4.17,4.17,0,0,1,81,23.17V50.85a4.17,4.17,0,0,1-8.33,0V27.33Z"/>
      <path d="M41.71,52.4,73.89,20.22a4.17,4.17,0,0,1,5.89,5.89L47.6,58.29a4.17,4.17,0,1,1-5.89-5.89Z"/>
      <path d="M92,8V70.51H29.49V8H92m8-8H21.49V78.51H100V0Z"/>
    </g>
  </g>
</svg>
